<?xml version="1.0" encoding="utf-8"?>
<!-- Generator: Adobe Illustrator 24.1.2, SVG Export Plug-In . SVG Version: 6.00 Build 0)  -->
<svg version="1.1" id="Camada_1" xmlns="http://www.w3.org/2000/svg" xmlns:xlink="http://www.w3.org/1999/xlink" x="0px" y="0px"
	 viewBox="0 0 15.9 15.9" style="enable-background:new 0 0 15.9 15.9;" xml:space="preserve">
<style type="text/css">
	.st0{fill:#DBDDDF;}
	.st1{fill:#EFF0F1;}
	.st2{fill:#11944A;}
	.st3{fill:#FBDF4E;}
	.st4{fill:#1D3B6C;}
</style>
<g>
	<g>
		<g>
			<path class="st0" d="M7.9,0.4c-4.1,0-7.5,3.4-7.5,7.5c0,4.1,3.4,7.5,7.5,7.5c4.1,0,7.5-3.4,7.5-7.5C15.5,3.8,12.1,0.4,7.9,0.4z
				 M7.9,14c-3.3,0-6-2.7-6-6c0-3.3,2.7-6,6-6s6,2.7,6,6C14,11.3,11.3,14,7.9,14z"/>
			<path class="st1" d="M7.9,0C3.6,0,0,3.6,0,7.9s3.6,7.9,7.9,7.9s7.9-3.6,7.9-7.9S12.3,0,7.9,0z M7.9,14.6c-3.7,0-6.6-3-6.6-6.6
				s3-6.6,6.6-6.6s6.6,3,6.6,6.6S11.6,14.6,7.9,14.6z"/>
			<circle class="st2" cx="7.9" cy="7.9" r="6"/>
		</g>
		<rect x="4.7" y="4.7" transform="matrix(0.7071 -0.7071 0.7071 0.7071 -3.2922 7.9481)" class="st3" width="6.6" height="6.6"/>
		<path class="st4" d="M9.8,7.9c0-1-0.8-1.8-1.8-1.8S6.1,6.9,6.1,7.9c0,1,0.8,1.8,1.8,1.8S9.8,9,9.8,7.9z"/>
	</g>
</g>
</svg>
