<?xml version="1.0" encoding="utf-8"?>
<!-- Generator: Adobe Illustrator 24.1.2, SVG Export Plug-In . SVG Version: 6.00 Build 0)  -->
<svg version="1.1" id="Camada_1" xmlns="http://www.w3.org/2000/svg" xmlns:xlink="http://www.w3.org/1999/xlink" x="0px" y="0px"
	 viewBox="0 0 15.9 15.9" style="enable-background:new 0 0 15.9 15.9;" xml:space="preserve">
<style type="text/css">
	.st0{fill:#DBDDDF;}
	.st1{fill:#EFF0F1;}
	.st2{fill:#1D3B6C;}
	.st3{fill:#FFFFFF;}
	.st4{fill:#B02120;}
</style>
<g>
	<g>
		<path class="st0" d="M7.9,0.4c-4.1,0-7.5,3.4-7.5,7.5s3.4,7.5,7.5,7.5c4.1,0,7.5-3.4,7.5-7.5S12.1,0.4,7.9,0.4z M7.9,14
			c-3.3,0-6-2.7-6-6s2.7-6,6-6s6,2.7,6,6S11.3,14,7.9,14z"/>
		<path class="st1" d="M7.9,0C3.6,0,0,3.6,0,7.9s3.6,7.9,7.9,7.9s7.9-3.6,7.9-7.9S12.3,0,7.9,0z M7.9,14.6c-3.7,0-6.6-3-6.6-6.6
			s3-6.6,6.6-6.6s6.6,3,6.6,6.6S11.6,14.6,7.9,14.6z"/>
		<g>
			<path class="st2" d="M3.5,4h9c-1-1.2-2.5-1.9-4.2-2H7.7C6,2,4.5,2.8,3.5,4z"/>
			<path class="st3" d="M2.3,6h11.3c-0.3-0.7-0.7-1.4-1.2-2h-9C3,4.5,2.5,5.2,2.3,6z"/>
			<path class="st4" d="M1.9,7.9c0,0.7,0.1,1.4,0.3,2h11.3c0.2-0.6,0.3-1.3,0.3-2c0-0.7-0.1-1.4-0.3-2H2.3C2.1,6.6,1.9,7.2,1.9,7.9z
				"/>
			<path class="st3" d="M3.5,12h8.9c0.5-0.6,0.9-1.3,1.2-2H2.3C2.6,10.7,3,11.4,3.5,12z"/>
			<path class="st2" d="M7.9,14c1.8,0,3.4-0.8,4.5-2H3.5C4.6,13.2,6.2,14,7.9,14z"/>
		</g>
	</g>
</g>
</svg>
