<?xml version="1.0" encoding="utf-8"?>
<!-- Generator: Adobe Illustrator 24.1.2, SVG Export Plug-In . SVG Version: 6.00 Build 0)  -->
<svg version="1.1" id="Camada_1" xmlns="http://www.w3.org/2000/svg" xmlns:xlink="http://www.w3.org/1999/xlink" x="0px" y="0px"
	 viewBox="0 0 15.9 15.9" style="enable-background:new 0 0 15.9 15.9;" xml:space="preserve">
<style type="text/css">
	.st0{fill:#DBDDDF;}
	.st1{fill:#EFF0F1;}
	.st2{fill:#B02120;}
	.st3{fill:#FFFFFF;}
	.st4{fill:#1D3B6C;}
</style>
<g>
	<path class="st0" d="M7.9,0.4c-4.1,0-7.5,3.4-7.5,7.5c0,4.1,3.4,7.5,7.5,7.5c4.1,0,7.5-3.4,7.5-7.5C15.5,3.8,12.1,0.4,7.9,0.4z
		 M7.9,14c-3.3,0-6-2.7-6-6c0-3.3,2.7-6,6-6c3.3,0,6,2.7,6,6C14,11.3,11.3,14,7.9,14z"/>
	<path class="st1" d="M7.9,0C3.6,0,0,3.6,0,7.9c0,4.4,3.6,7.9,7.9,7.9c4.4,0,7.9-3.6,7.9-7.9C15.9,3.6,12.3,0,7.9,0z M7.9,14.6
		c-3.7,0-6.6-3-6.6-6.6s3-6.6,6.6-6.6c3.7,0,6.6,3,6.6,6.6S11.6,14.6,7.9,14.6z"/>
	<g>
		<path class="st2" d="M9.9,2.3v11.3c2.3-0.8,4-3,4-5.7C14,5.3,12.3,3.1,9.9,2.3z"/>
		<path class="st3" d="M7.9,1.9c-0.7,0-1.4,0.1-2,0.3v11.3c0.6,0.2,1.3,0.3,2,0.3c0.7,0,1.4-0.1,2-0.3V2.3C9.3,2.1,8.7,1.9,7.9,1.9z
			"/>
		<path class="st4" d="M1.9,7.9c0,2.6,1.7,4.8,4,5.7V2.3C3.6,3.1,1.9,5.3,1.9,7.9z"/>
	</g>
</g>
</svg>
