<?xml version="1.0" encoding="utf-8"?>
<!-- Generator: Adobe Illustrator 24.1.2, SVG Export Plug-In . SVG Version: 6.00 Build 0)  -->
<svg version="1.1" id="Camada_1" xmlns="http://www.w3.org/2000/svg" xmlns:xlink="http://www.w3.org/1999/xlink" x="0px" y="0px"
	 viewBox="0 0 15.9 15.9" style="enable-background:new 0 0 15.9 15.9;" xml:space="preserve">
<style type="text/css">
	.st0{fill:#DBDDDF;}
	.st1{fill:#EFF0F1;}
	.st2{fill:#B02120;}
	.st3{fill:#11944A;}
</style>
<g>
	<path class="st0" d="M7.9,0.4c-4.1,0-7.5,3.4-7.5,7.5c0,4.1,3.4,7.5,7.5,7.5s7.5-3.4,7.5-7.5C15.5,3.8,12.1,0.4,7.9,0.4z M7.9,14
		c-3.3,0-6-2.7-6-6c0-3.3,2.7-6,6-6s6,2.7,6,6C14,11.3,11.3,14,7.9,14z"/>
	<path class="st1" d="M7.9,0C3.6,0,0,3.6,0,7.9s3.6,7.9,7.9,7.9s7.9-3.6,7.9-7.9S12.3,0,7.9,0z M7.9,14.6c-3.7,0-6.6-3-6.6-6.6
		s3-6.6,6.6-6.6s6.6,3,6.6,6.6S11.6,14.6,7.9,14.6z"/>
	<g>
		<path class="st2" d="M14,7.9c0-3.3-2.7-6-6-6c-0.4,0-0.7,0-1,0.1v11.8c0.3,0.1,0.7,0.1,1,0.1C11.3,14,14,11.3,14,7.9z"/>
		<path class="st3" d="M1.9,7.9c0,3,2.1,5.4,5,5.9V2C4.1,2.5,1.9,5,1.9,7.9z"/>
	</g>
</g>
</svg>
